<?xml version="1.0" encoding="UTF-8" standalone="no"?>
<svg
  xmlns="http://www.w3.org/2000/svg" 
  xmlns:xlink= "http://www.w3.org/1999/xlink"
>
  <g>
    <path
       d="M 122.18463,28.93999 115.15781,42.568182 93.934304,42.278346 86.761093,29.379732 63.33839,35.682476 63.63118,50.336663 45.481909,60.743517 32.599426,52.975037 15.617964,70.857219 l 7.75877,12.165771 -4.245368,7.285446 10.247438,6.199472 -6.294857,10.403512 -9.79162,-5.32667 -3.9692116,7.23215 -14.785589,-0.58628 -6.5843074,23.30547 12.58637738,7.47535 v 20.95696 l -12.58637738,7.18217 6.1451334,23.59865 15.371148,-0.29316 10.3938246,18.61174 -7.75877,12.16577 17.274256,17.44286 12.662913,-7.9151 17.783264,10.69962 -0.146382,14.65755 23.861875,6.73912 7.173211,-13.33501 7.905173,-0.0733 -0.07306,-9.71062 11.525035,-0.0368 0.14638,9.82057 h 8.12474 l 7.06342,12.74871 24.00828,-6.29943 -0.73197,-14.6575 18.29566,-10.55344 12.58971,8.20824 17.71341,-17.8822 -8.05155,-13.04523 10.39382,-17.43913 15.07504,0.14664 6.44125,-23.74523 -13.17195,-6.88902 v -21.10339 l 13.02554,-7.62192 -6.73401,-23.1589 -14.63587,0.29315 -4.05572,-6.49929 -9.35246,5.21675 -6.39798,-11.026478 10.1443,-6.236107 -4.24537,-7.102249 7.61236,-12.312343 -17.42062,-17.295878 -12.29692,7.768481 -18.73483,-10.260265 0.87835,-14.947366 z m -20.77435,38.209541 c 25.96915,-0.71823 51.97582,12.082216 67.17724,35.657779 l 8.19797,-4.836981 6.44125,10.993161 -8.63717,4.69042 c 24.42857,47.17469 -6.27377,110.0508 -64.55547,111.53718 v 10.99316 l -11.561643,-0.14638 -0.03653,-10.80994 C 40.280761,222.8118 9.7337134,158.91792 33.990221,113.65403 l -8.124754,-4.98356 6.294857,-10.700011 8.051547,4.543851 C 55.613306,78.94173 78.49639,67.783404 101.41036,67.149661 Z"
       id="cog" />
    <path
       d="m 106.25634,73.01283 c -35.610126,0.04838 -55.145115,19.825213 -58.163643,47.37591 -0.43096,3.93344 -0.522776,8.02395 -0.279187,12.23951 0.289152,5.0039 1.053233,10.18382 2.296765,15.47803 4.975534,1.39463 9.97897,10.0816 4.392523,16.45333 -2.123045,2.42152 -4.263717,4.35388 -7.924643,1.6232 -0.137616,0.43362 0.483503,0.14382 0,0 -2.594043,20.81806 16.308548,32.46068 17.138273,32.72053 0,0 0.113184,-0.43219 0.171225,-0.64771 0.0039,0.001 0.0091,0.005 0.01489,0.005 0.0039,-0.0339 0.01099,-0.0633 0.01482,-0.0967 2.241557,-8.27678 5.669315,-13.14444 12.454885,-6.86816 3.213465,3.40389 4.577564,10.80442 1.098131,17.16818 -0.525301,0.78556 -1.140086,1.59141 -1.850069,2.43077 0.612817,2.13405 1.497966,4.78634 2.698796,6.73029 -0.04848,-0.49707 2.31536,-4.78604 2.870243,-5.13071 3.075039,-0.0622 1.47097,-1.53127 3.478978,3.38993 1.674059,-1.298 1.940235,-5.53258 2.415709,-6.63848 0.57616,-1.34007 1.351435,2.74349 2.200987,3.68072 2.087876,-2.87511 1.001233,-6.77183 1.892228,-6.8892 0.548412,-0.67171 -0.170277,2.52692 1.297447,2.70485 1.288788,0.15629 1.163021,6.5149 1.750823,8.22663 0,0 1.507537,-2.45373 2.729016,-2.87682 0.360649,-1.66164 0.09274,-4.54258 1.307675,-6.55716 0.377108,0.005 1.326416,3.29903 1.591414,3.35687 2.154924,0.47038 1.556294,3.41702 2.246364,4.63149 1.43235,-5.26441 0.4057,-5.01992 2.66505,-6.60858 l 2.433,1.06837 v 6.89343 h 5.30453 v -6.89343 h 2.86258 v 6.89343 h 5.30825 v -6.89343 h 3.05614 l 0.0595,6.89354 h 5.30825 v -1.891 h 0.0223 c 0.91817,-1.66602 1.50167,-3.41259 1.63791,-3.89371 -4.61124,-5.94466 -4.6612,-13.27369 -2.56106,-17.40643 8.01245,-9.94277 13.11819,-1.01296 14.97716,5.48227 0.0523,0.3141 -0.0438,-0.33055 0,0 0.1753,-0.0677 -0.0339,-0.13532 0,0 11.94233,-6.6059 18.1964,-22.22381 17.14197,-32.33713 -0.43361,0.2833 0.0595,0.3318 0,0 -3.66094,2.73069 -6.31735,0.35272 -8.44043,-2.06878 -3.39457,-6.19409 -1.85374,-10.9307 1.64771,-14.01139 0,-11.75528 -0.0406,-11.8184 7.15594,-11.81141 l -2e-5,-33.27866 -5.44225,-11.435423 -5.79963,-0.238238 c -9.29284,-13.258942 -23.80043,-20.001481 -40.93231,-20.946457 -0.7557,-0.01598 -1.50291,-0.02331 -2.24465,-0.02228 z m 21.8174,78.49578 c 0.0245,-7e-5 0.0501,-7e-5 0.0745,0 6.49746,-0.001 11.76535,5.26556 11.76675,11.76301 0.001,6.49914 -5.26762,11.76773 -11.76675,11.76676 -6.49745,-10e-4 -11.764,-5.2693 -11.76301,-11.76676 10e-4,-6.46732 5.22137,-11.7214 11.68857,-11.76301 z m -59.042131,1.04603 c 0.105721,2.9e-4 0.213823,0.005 0.327578,0.0121 6.687996,0.46353 19.174358,8.11422 25.699942,10.94035 -0.327936,2.1723 -1.619972,3.61603 -3.849024,6.15697 -9.890645,4.49403 -16.201702,6.8486 -22.599137,2.47173 -0.894511,-0.64716 -4.034852,-6.54908 -3.413505,-10.19215 -0.11508,-4.8194 0.55749,-9.39731 3.834146,-9.38807 z m 59.235701,0.49135 c -5.69421,3e-4 -10.31095,4.61332 -10.31125,10.30753 3e-4,5.69423 4.61704,10.31096 10.31125,10.31126 5.69422,-3e-4 10.30722,-4.61703 10.30753,-10.31126 -3.1e-4,-5.69421 -4.61331,-10.30723 -10.30753,-10.30753 z m -0.0521,3.7262 c 0.0471,-3.9e-4 0.0943,-3.9e-4 0.14148,0 3.81185,0 6.90146,3.08962 6.90146,6.90147 0,3.81185 -3.08961,6.90147 -6.90146,6.90147 -3.81186,0 -6.90146,-3.08962 -6.90146,-6.90147 -7.9e-4,-3.75729 3.0035,-6.82447 6.76001,-6.90147 z m -20.40658,14.5251 c 0.0768,3e-5 0.14542,0.0466 0.201,0.14514 2.54528,4.50649 1.5232,7.49123 4.74244,11.52849 0.53549,0.70311 -1.40646,4.32454 -4.6866,5.79589 -1.23884,-3.27222 -2.10319,-4.51804 -2.9147,-4.5563 -1.30485,-0.0616 -1.81796,3.39898 -3.59218,4.86899 -1.26297,0.326 -3.127386,-3.51323 -4.437186,-5.08862 3.409566,-5.11066 5.879276,-12.69973 5.840546,-12.52985 1.20669,1.13655 1.96264,2.26482 2.32283,3.43958 0.96705,-1.4034 1.98616,-3.60365 2.52385,-3.60336 z"
       id="skull" />
  </g>
</svg>
